<?xml version="1.0" standalone="no"?>
<!DOCTYPE svg PUBLIC "-//W3C//DTD SVG 20010904//EN"
 "http://www.w3.org/TR/2001/REC-SVG-20010904/DTD/svg10.dtd">
<svg version="1.0" xmlns="http://www.w3.org/2000/svg"
 width="360.000000pt" height="360.000000pt" viewBox="0 0 360.000000 360.000000"
 preserveAspectRatio="xMidYMid meet">

<g transform="translate(0.000000,360.000000) scale(0.100000,-0.100000)"
fill="#000000" stroke="none">
<path d="M1592 3590 c-747 -94 -1357 -630 -1536 -1348 -44 -178 -51 -238 -50
-452 0 -183 3 -219 28 -335 34 -163 83 -310 146 -439 232 -478 668 -833 1178
-960 178 -44 238 -51 452 -50 183 0 219 3 335 28 163 34 310 83 439 146 478
232 833 668 960 1178 44 178 51 238 50 452 0 183 -3 219 -28 335 -80 381 -251
695 -519 952 -264 253 -575 410 -952 480 -96 17 -402 25 -503 13z m88 -155 c0
-3 -16 -46 -36 -96 -32 -79 -36 -97 -30 -144 5 -48 4 -54 -15 -60 -27 -9 -28
-7 -38 53 -6 40 -20 65 -70 128 -45 57 -58 80 -49 86 26 16 44 6 82 -47 22
-30 42 -55 46 -55 3 0 17 29 29 64 22 63 25 66 74 75 4 0 7 -1 7 -4z m338 -16
c54 -18 71 -83 29 -115 l-23 -17 24 -24 c29 -30 25 -78 -11 -107 -19 -16 -33
-18 -101 -12 -44 4 -82 9 -86 11 -4 3 21 250 29 283 2 6 103 -9 139 -19z m302
-64 c48 -25 70 -62 70 -117 0 -94 -56 -161 -136 -161 -104 0 -159 97 -114 201
35 82 109 114 180 77z m-970 -25 c21 -21 26 -55 10 -80 -7 -11 -2 -17 21 -27
52 -22 60 -82 17 -123 -20 -18 -145 -66 -153 -58 -6 5 -95 261 -92 264 1 1 25
12 52 23 66 26 119 27 145 1z m1182 -62 c14 -12 10 -25 -42 -118 l-59 -105 54
-30 c59 -32 59 -33 45 -55 -7 -12 -21 -8 -84 25 -42 22 -76 44 -76 48 0 9 75
151 112 215 22 36 27 38 50 20z m-1542 -123 c16 -8 38 -28 50 -45 59 -83 43
-154 -50 -219 l-59 -41 -74 107 c-40 60 -77 114 -81 120 -5 8 14 27 55 53 68
44 110 50 159 25z m1816 -51 c46 -36 84 -69 84 -72 0 -4 -4 -13 -9 -21 -8 -12
-16 -10 -46 14 -21 15 -40 23 -44 18 -3 -5 -37 -49 -75 -97 -66 -84 -69 -86
-87 -70 -22 20 -26 12 69 134 34 44 59 80 55 80 -4 0 -21 12 -36 26 -24 20
-27 27 -17 39 7 8 14 15 17 15 2 0 42 -30 89 -66z m-2129 -162 l-47 -48 28
-27 28 -27 44 45 c39 40 46 43 59 30 14 -13 10 -20 -29 -60 l-44 -45 27 -27
27 -27 47 46 c44 43 50 46 68 32 18 -14 16 -17 -45 -79 -36 -36 -68 -64 -72
-63 -17 7 -198 180 -198 191 0 6 28 40 62 74 55 56 64 61 77 48 14 -13 10 -20
-32 -63z m2400 -102 c11 -16 7 -36 -27 -127 -21 -59 -38 -108 -36 -110 1 -1
36 22 77 51 74 54 74 55 94 35 17 -17 18 -21 5 -29 -8 -5 -62 -43 -119 -84
-100 -72 -105 -74 -118 -56 -13 18 -9 33 25 128 22 59 38 108 37 110 -2 2 -36
-20 -75 -49 -57 -41 -76 -50 -89 -42 -9 6 -16 15 -16 21 0 9 210 169 225 171
3 1 11 -8 17 -19z m-263 -55 c2 -7 -2 -21 -9 -32 -11 -14 -18 -16 -31 -7 -25
15 -27 29 -9 47 17 17 40 13 49 -8z m-2251 -26 c26 -14 40 -35 47 -69 5 -22
11 -25 55 -28 73 -4 79 -7 60 -35 -14 -21 -19 -23 -72 -16 -52 6 -60 4 -76
-14 -19 -21 -18 -22 4 -37 57 -37 62 -45 50 -68 -11 -21 -14 -20 -132 58
l-120 81 18 30 c10 17 33 48 51 70 36 42 72 50 115 28z m1337 -91 c0 -2 -25
-115 -55 -253 -30 -137 -55 -251 -55 -253 0 -2 19 13 42 32 116 100 276 120
422 53 154 -71 223 -212 213 -437 -6 -139 -23 -206 -83 -329 -85 -173 -230
-286 -402 -312 -126 -19 -260 16 -344 90 -40 35 -44 33 -54 -27 l-6 -40 -220
-117 c-121 -64 -222 -115 -224 -112 -7 6 151 741 347 1615 l21 92 199 0 c109
0 199 -1 199 -2z m1386 -165 c19 -42 32 -83 30 -90 -11 -28 -34 -11 -61 46
l-28 60 -31 -16 c-17 -8 -32 -17 -34 -18 -2 -2 8 -26 22 -54 31 -60 31 -58 7
-71 -18 -9 -23 -4 -47 50 l-26 59 -32 -16 c-17 -8 -32 -17 -34 -18 -1 -1 9
-28 24 -61 25 -56 25 -59 7 -72 -17 -12 -21 -6 -55 69 -21 44 -38 85 -38 89 0
7 237 120 253 120 4 0 23 -35 43 -77z m-2916 22 c0 -2 -11 -30 -25 -61 -14
-32 -24 -58 -23 -59 12 -7 69 -27 71 -24 2 2 13 27 26 55 19 41 27 51 42 47
21 -6 19 -23 -7 -75 -21 -40 -17 -54 16 -68 17 -7 32 -11 34 -9 2 2 16 30 30
62 23 52 27 57 45 47 19 -10 19 -13 -18 -93 -21 -45 -44 -81 -50 -80 -9 2
-240 103 -249 108 -1 1 14 41 35 88 32 75 39 84 55 76 10 -5 18 -12 18 -14z
m3000 -221 c0 -22 -11 -31 -91 -68 -104 -50 -100 -56 27 -56 82 0 85 -1 95
-26 5 -15 8 -28 7 -29 -2 -2 -46 -25 -98 -51 l-95 -49 106 -3 c106 -3 107 -3
113 -29 4 -14 6 -27 4 -29 -3 -2 -291 17 -295 20 0 0 -3 12 -5 26 -3 22 6 30
87 72 101 52 101 52 -34 62 -73 5 -94 15 -88 45 2 14 231 141 255 141 6 0 12
-12 12 -26z m-3005 -66 c113 -56 125 -65 125 -89 0 -24 -4 -27 -52 -33 -29 -3
-72 -6 -95 -6 -23 0 -44 -3 -47 -8 -2 -4 33 -27 80 -51 81 -41 96 -58 76 -87
-4 -6 -52 -14 -107 -18 -55 -4 -119 -9 -143 -13 -43 -5 -44 -5 -40 23 l3 29
97 5 c53 3 99 8 102 11 4 3 -34 25 -84 47 -77 36 -90 45 -90 66 0 30 15 36
103 37 119 1 122 9 18 57 -80 36 -91 45 -91 67 0 14 4 25 10 25 5 0 66 -28
135 -62z m20 -394 c59 -28 86 -98 62 -163 -32 -89 -175 -115 -248 -45 -69 66
-36 194 56 217 42 10 98 6 130 -9z m2925 -59 c69 -8 126 -15 128 -15 2 0 2
-15 0 -32 -3 -32 -4 -33 -112 -63 l-109 -31 99 -56 c93 -52 99 -57 96 -84 -2
-16 -5 -30 -7 -32 -3 -3 -278 28 -282 32 -1 1 1 12 4 25 6 24 11 25 158 5 l40
-5 -45 26 c-25 15 -66 38 -92 51 -68 35 -65 58 10 79 31 9 77 22 102 29 l45
13 -40 6 c-22 4 -66 9 -97 13 -59 6 -63 10 -52 38 7 19 0 19 154 1z m-2952
-260 c21 -17 33 -38 37 -66 7 -40 8 -41 42 -34 19 3 40 8 48 11 15 6 32 -34
18 -46 -6 -6 -251 -70 -267 -70 -2 0 -12 32 -21 72 -13 57 -14 77 -4 100 24
58 98 74 147 33z m2990 -256 l-10 -29 -154 0 -153 0 8 23 c6 17 17 23 48 25
38 3 40 5 55 52 l16 50 -29 24 c-25 22 -28 28 -19 51 l10 26 119 -96 c117 -95
119 -98 109 -126z m-2748 -80 c10 -18 3 -30 -60 -99 l-71 -79 88 24 c107 30
115 30 131 5 11 -18 2 -30 -89 -125 -81 -84 -105 -103 -115 -94 -23 19 -17 31
58 106 40 40 68 73 62 73 -5 0 -48 -11 -95 -25 -103 -30 -101 -30 -118 -4 -12
20 -7 27 65 100 l77 78 -103 -32 c-99 -30 -103 -31 -116 -12 -8 10 -14 21 -14
25 0 5 249 76 277 79 7 0 17 -8 23 -20z m2527 -45 c59 -37 114 -72 120 -78 10
-9 5 -24 -22 -68 -19 -31 -47 -63 -61 -73 -87 -57 -235 33 -221 135 4 29 63
150 74 150 1 0 50 -30 110 -66z m-149 -272 c50 -47 92 -90 92 -95 0 -6 -27
-38 -60 -72 -52 -55 -62 -61 -77 -50 -16 12 -14 17 25 59 23 25 42 49 42 53 0
4 -10 17 -22 30 l-22 23 -46 -45 c-41 -40 -48 -44 -59 -31 -11 13 -7 23 25 61
l37 46 -26 27 -27 27 -44 -50 c-41 -46 -46 -49 -61 -34 -16 15 -12 21 45 83
36 38 67 63 74 59 6 -4 53 -45 104 -91z m-2148 2 c50 -54 59 -69 48 -78 -7 -7
-54 -51 -104 -99 l-91 -88 -66 68 c-58 60 -64 70 -52 83 13 12 21 8 63 -33
l48 -47 27 27 27 27 -42 43 c-40 41 -41 44 -24 61 17 16 19 15 58 -31 l41 -48
28 27 28 27 -44 50 c-34 39 -42 54 -33 64 6 7 14 13 18 13 4 0 36 -30 70 -66z
m132 -237 l3 -119 53 76 c48 69 55 75 72 63 11 -6 20 -15 20 -19 0 -6 -129
-192 -157 -228 -2 -2 -12 1 -21 6 -14 9 -18 32 -22 129 l-5 118 -50 -71 c-52
-74 -64 -82 -85 -57 -9 11 3 35 70 129 73 102 85 113 101 103 16 -10 19 -27
21 -130z m1743 -3 c42 -58 79 -112 81 -119 3 -7 -3 -18 -14 -24 -18 -10 -29 1
-101 99 -45 61 -81 115 -81 120 0 7 25 27 36 30 1 0 36 -48 79 -106z m-97 -84
c34 -65 62 -124 62 -129 0 -5 -9 -13 -20 -16 -14 -4 -54 11 -126 49 l-105 55
46 -87 c43 -80 45 -87 29 -99 -10 -7 -21 -13 -24 -13 -4 0 -36 56 -72 124 -64
123 -69 146 -31 146 7 0 59 -23 114 -51 56 -27 99 -47 97 -42 -2 4 -21 43 -43
86 -34 66 -38 79 -25 87 8 5 20 10 25 10 6 0 38 -54 73 -120z m-1404 44 c7
-19 -10 -44 -29 -44 -19 0 -36 25 -29 44 3 9 16 16 29 16 13 0 26 -7 29 -16z
m166 -64 c13 -8 10 -24 -23 -117 -20 -60 -37 -111 -37 -115 0 -4 18 -13 40
-19 28 -9 39 -17 35 -27 -3 -7 -5 -18 -5 -23 0 -11 -213 64 -217 77 -1 5 1 15
6 22 7 11 15 11 46 -2 20 -9 39 -16 40 -16 2 0 16 37 31 83 50 150 54 156 84
137z m862 -145 c15 -66 27 -127 28 -136 0 -17 -75 -39 -136 -39 -62 0 -97 68
-57 112 15 17 15 18 -2 18 -51 0 -75 80 -36 119 11 11 39 25 63 31 24 6 48 13
53 15 6 2 21 3 35 2 23 -2 26 -10 52 -122z m-649 93 c42 -6 77 -16 77 -22 0
-6 -9 -71 -21 -143 -19 -116 -24 -133 -41 -133 -29 0 -31 22 -14 124 21 124
21 123 -14 130 -16 3 -43 9 -60 12 -21 4 -30 11 -30 25 0 22 2 23 103 7z m334
-52 c34 -31 37 -39 41 -97 3 -55 0 -69 -20 -99 -78 -114 -238 -59 -238 82 0
98 44 147 133 148 40 0 53 -5 84 -34z"/>
<path d="M1920 3349 l0 -40 41 3 c56 4 74 31 40 59 -13 10 -36 19 -52 19 -27
0 -29 -3 -29 -41z"/>
<path d="M1910 3253 c0 -10 -3 -28 -6 -39 -5 -19 -1 -22 33 -26 48 -7 73 6 73
37 0 28 -26 45 -69 45 -23 0 -31 -5 -31 -17z"/>
<path d="M2213 3298 c-28 -30 -44 -93 -33 -123 14 -37 56 -60 88 -49 37 13 72
69 72 114 0 70 -81 107 -127 58z"/>
<path d="M1246 3298 c-25 -9 -27 -14 -22 -41 9 -45 17 -49 56 -29 38 18 49 44
30 67 -14 17 -24 18 -64 3z"/>
<path d="M1286 3188 c-25 -9 -27 -14 -22 -41 9 -46 20 -52 63 -36 44 17 57 54
27 76 -21 15 -29 15 -68 1z"/>
<path d="M868 3092 c-16 -9 -28 -19 -28 -23 0 -4 88 -136 106 -158 2 -2 17 7
34 19 58 41 59 94 2 153 -30 32 -73 35 -114 9z"/>
<path d="M475 2684 c-14 -15 -25 -32 -25 -38 0 -10 69 -61 74 -54 41 56 47 91
17 108 -29 15 -40 13 -66 -16z"/>
<path d="M1795 1901 c-22 -10 -47 -27 -57 -37 -9 -10 -29 -77 -46 -149 -27
-121 -28 -131 -13 -149 47 -55 177 -74 250 -36 109 55 160 194 110 297 -41 84
-150 117 -244 74z"/>
<path d="M270 1793 c-95 -37 -71 -153 32 -153 93 0 138 65 85 125 -22 26 -84
41 -117 28z"/>
<path d="M271 1474 c-20 -14 -22 -23 -18 -56 3 -22 7 -41 9 -43 2 -2 25 2 51
8 47 10 49 12 43 41 -7 32 -32 66 -50 66 -6 0 -22 -7 -35 -16z"/>
<path d="M3181 1319 c-6 -18 -11 -34 -11 -35 0 -2 26 -4 58 -4 l57 0 -40 35
c-22 19 -43 34 -47 35 -3 0 -11 -14 -17 -31z"/>
<path d="M3008 1099 c-28 -49 -23 -82 17 -118 52 -45 104 -44 141 5 23 30 25
37 13 48 -13 12 -146 96 -151 96 -2 0 -11 -14 -20 -31z"/>
<path d="M2100 437 c-62 -21 -48 -77 19 -77 54 0 62 9 50 53 -11 40 -16 42
-69 24z"/>
<path d="M2130 317 c-29 -15 -37 -48 -16 -66 21 -17 86 -4 86 18 -1 58 -22 72
-70 48z"/>
<path d="M1778 380 c-28 -28 -30 -35 -26 -81 6 -63 29 -89 78 -89 53 0 75 28
75 97 0 48 -4 58 -28 79 -37 32 -62 30 -99 -6z"/>
</g>
</svg>
